{"asset":{"version":"2.0","generator":"gtabkk-wave"},"scene":0,"scenes":[{"nodes":[0],"name":"wave"}],"nodes":[{"name":"gltf-hero","mesh":0}],"meshes":[{"name":"wave-body","primitives":[{"attributes":{"POSITION":0,"NORMAL":1},"indices":2,"material":0}]}],"materials":[{"name":"wave-red","pbrMetallicRoughness":{"baseColorFactor":[0.839,0.212,0.235,1],"metallicFactor":0.35,"roughnessFactor":0.48}}],"accessors":[{"bufferView":0,"componentType":5126,"count":168,"type":"VEC3","max":[0.31,1.01,0.86],"min":[-0.31,0.08,-0.92]},{"bufferView":1,"componentType":5126,"count":168,"type":"VEC3"},{"bufferView":2,"componentType":5123,"count":252,"type":"SCALAR"}],"bufferViews":[{"buffer":0,"byteOffset":0,"byteLength":2016,"target":34962},{"buffer":0,"byteOffset":2016,"byteLength":2016,"target":34962},{"buffer":0,"byteOffset":4032,"byteLength":504,"target":34963}],"buffers":[{"byteLength":4536,"uri":"data:application/octet-stream;base64,"}]}